<?xml version="1.0" standalone="no"?>
<!DOCTYPE svg PUBLIC "-//W3C//DTD SVG 20010904//EN"
 "http://www.w3.org/TR/2001/REC-SVG-20010904/DTD/svg10.dtd">
<svg version="1.0" xmlns="http://www.w3.org/2000/svg"
 width="819.000000pt" height="609.000000pt" viewBox="0 0 819.000000 609.000000"
 preserveAspectRatio="xMidYMid meet">

<g transform="translate(0.000000,609.000000) scale(0.100000,-0.100000)"
fill="#000000" stroke="none">
<path d="M134 5903 c13 -27 45 -93 71 -148 25 -55 51 -109 57 -120 25 -43 121
-240 184 -377 36 -78 81 -170 99 -203 18 -33 38 -78 45 -100 7 -22 18 -47 25
-55 12 -14 85 -165 85 -175 0 -4 56 -124 163 -345 77 -162 127 -269 127 -275
0 -2 38 -81 85 -175 46 -94 87 -181 91 -193 7 -23 68 -152 184 -392 71 -146
140 -294 140 -300 0 -2 42 -91 94 -197 52 -106 107 -223 124 -259 l30 -67 -52
-108 c-28 -60 -65 -134 -82 -164 -17 -30 -39 -73 -49 -95 -10 -22 -44 -94 -75
-160 -32 -66 -61 -131 -65 -144 -4 -13 -51 -108 -105 -210 -54 -102 -110 -215
-125 -251 -15 -36 -89 -189 -165 -340 -122 -244 -154 -307 -197 -385 -26 -46
-163 -332 -163 -339 0 -4 -28 -57 -61 -117 -34 -60 -60 -112 -57 -114 2 -3
323 -5 713 -5 l709 -1 22 43 c12 24 36 83 53 133 18 50 45 119 61 155 16 36
40 97 55 135 15 39 32 84 40 100 7 17 34 86 60 154 25 68 59 153 75 190 46
105 90 221 90 237 0 8 4 14 9 14 5 0 12 16 15 35 6 32 58 167 91 240 27 58
128 311 165 415 21 58 50 137 65 175 15 39 33 90 41 114 18 55 106 242 132
279 24 33 134 244 152 292 7 19 21 46 30 60 33 49 346 685 444 902 9 20 20 40
25 42 5 3 12 18 16 33 3 15 30 71 60 123 29 52 78 151 108 220 30 69 62 139
71 155 16 31 83 173 131 280 15 33 48 105 75 160 26 55 58 125 71 155 13 30
43 88 66 130 24 41 43 78 43 83 0 4 19 47 41 95 23 48 68 146 101 217 33 72
64 136 70 142 6 7 31 57 57 110 42 87 69 138 108 207 7 11 8 23 3 26 -4 3
-316 7 -693 9 l-685 3 -7 -23 c-4 -13 -19 -49 -33 -79 -31 -67 -112 -282 -158
-415 -19 -55 -39 -109 -44 -120 -4 -11 -20 -54 -35 -95 -15 -41 -40 -106 -57
-145 -35 -82 -86 -219 -173 -470 -34 -99 -75 -211 -90 -250 -15 -38 -39 -104
-55 -145 -15 -41 -38 -100 -50 -130 -12 -30 -41 -104 -65 -165 -23 -60 -57
-147 -75 -193 -17 -45 -36 -80 -40 -77 -5 3 -16 37 -24 75 -9 39 -32 103 -50
143 -19 39 -46 110 -61 157 -15 47 -38 110 -50 140 -13 30 -30 75 -38 100 -23
71 -94 269 -117 330 -23 60 -107 293 -146 405 -13 39 -28 79 -34 90 -24 51
-48 116 -120 325 -42 124 -104 295 -137 380 l-60 155 -701 3 -702 2 24 -47z"/>
<path d="M5525 5200 c-378 -32 -791 -155 -1050 -313 -143 -88 -160 -100 -259
-185 -275 -239 -438 -548 -534 -1017 -38 -183 -52 -333 -53 -561 -1 -240 18
-402 76 -664 61 -279 256 -619 438 -766 23 -19 63 -54 88 -78 25 -24 65 -54
89 -66 24 -12 65 -40 92 -61 28 -21 54 -39 58 -39 5 0 64 -25 132 -56 263
-121 466 -173 838 -214 166 -19 231 -21 440 -17 135 3 283 10 330 16 47 7 121
16 165 22 79 11 176 31 330 70 86 21 263 91 307 121 14 10 33 18 42 18 22 0
183 85 226 119 20 16 53 37 75 49 22 11 51 32 65 47 14 15 53 46 86 71 88 62
91 77 35 133 -21 21 -104 116 -184 212 -317 377 -336 399 -355 392 -9 -3 -39
-21 -67 -39 -103 -66 -213 -114 -405 -176 -52 -16 -104 -34 -115 -38 -45 -18
-200 -52 -287 -61 -52 -6 -189 -9 -308 -6 -189 4 -230 8 -335 32 -66 15 -131
33 -145 40 -14 7 -52 23 -85 36 -261 98 -384 229 -442 469 -5 23 -23 133 -23
147 0 10 320 13 1553 15 l1552 3 3 150 c7 346 -37 680 -125 950 -34 102 -128
317 -164 375 -9 14 -26 43 -38 65 -51 88 -241 294 -331 357 -25 18 -47 34 -50
38 -5 6 -129 84 -195 123 -60 35 -170 87 -184 87 -8 0 -44 14 -80 31 -157 74
-472 147 -734 168 -142 12 -334 12 -472 1z m579 -989 c133 -30 260 -84 341
-146 69 -53 154 -143 178 -190 15 -27 27 -53 27 -58 0 -4 13 -35 30 -70 l29
-62 -946 -3 c-520 -1 -947 -1 -949 0 -7 7 17 98 36 138 53 113 81 149 174 224
103 81 218 130 396 166 138 27 145 28 375 25 173 -2 227 -6 309 -24z"/>
</g>
</svg>
